<svg width="32" height="32" viewBox="0 0 32 32" fill="none" xmlns="http://www.w3.org/2000/svg">
<path d="M17.8667 23.2266H14.52C12.3333 23.2266 10.56 21.3866 10.56 19.12C10.56 18.5733 11.0133 18.12 11.56 18.12C12.1067 18.12 12.56 18.5733 12.56 19.12C12.56 20.28 13.44 21.2266 14.52 21.2266H17.8667C18.7333 21.2266 19.4533 20.4533 19.4533 19.52C19.4533 18.36 19.04 18.1333 18.36 17.8933L12.9867 16C11.9467 15.64 10.5467 14.8666 10.5467 12.48C10.5467 10.4266 12.16 8.77332 14.1333 8.77332H17.48C19.6667 8.77332 21.44 10.6133 21.44 12.88C21.44 13.4266 20.9867 13.88 20.44 13.88C19.8933 13.88 19.44 13.4266 19.44 12.88C19.44 11.72 18.56 10.7733 17.48 10.7733H14.1333C13.2667 10.7733 12.5467 11.5466 12.5467 12.48C12.5467 13.64 12.96 13.8666 13.64 14.1066L19.0133 16C20.0533 16.36 21.4533 17.1333 21.4533 19.52C21.44 21.56 19.84 23.2266 17.8667 23.2266Z" fill="#0F0F0F"/>
<path d="M16 25C15.4533 25 15 24.5467 15 24V8C15 7.45333 15.4533 7 16 7C16.5467 7 17 7.45333 17 8V24C17 24.5467 16.5467 25 16 25Z" fill="#0F0F0F"/>
<path d="M16 30.3334C8.09332 30.3334 1.66666 23.9067 1.66666 16C1.66666 8.09335 8.09332 1.66669 16 1.66669C23.9067 1.66669 30.3333 8.09335 30.3333 16C30.3333 23.9067 23.9067 30.3334 16 30.3334ZM16 3.66669C9.19999 3.66669 3.66666 9.20002 3.66666 16C3.66666 22.8 9.19999 28.3334 16 28.3334C22.8 28.3334 28.3333 22.8 28.3333 16C28.3333 9.20002 22.8 3.66669 16 3.66669Z" fill="#0F0F0F"/>
</svg>
