<svg width="256" height="128" viewBox="0 0 256 128" fill="none" xmlns="http://www.w3.org/2000/svg">
<ellipse cx="32.2119" cy="31.2704" rx="32.2119" ry="31.2704" fill="#0F0F0F"/>
<ellipse cx="224.212" cy="31.2704" rx="31.7881" ry="31.2704" fill="#0F0F0F"/>
<path d="M256 128C256 111.191 252.689 94.5462 246.257 79.0165C239.824 63.4868 230.396 49.3762 218.51 37.4903C206.624 25.6044 192.513 16.176 176.983 9.74342C161.454 3.31082 144.809 -7.34753e-07 128 0C111.191 7.34754e-07 94.5462 3.31082 79.0165 9.74342C63.4868 16.176 49.3762 25.6044 37.4903 37.4903C25.6044 49.3762 16.176 63.4869 9.74342 79.0165C3.31081 94.5462 -1.46951e-06 111.191 0 128L128 128H256Z" fill="#0F0F0F"/>
<path d="M91.5497 71.2965C91.5497 73.6509 91.0783 75.9822 90.1624 78.1574C89.2465 80.3325 87.904 82.309 86.2116 83.9738C84.5193 85.6386 82.5101 86.9591 80.299 87.8601C78.0878 88.7611 75.7179 89.2248 73.3245 89.2248C70.9311 89.2248 68.5612 88.7611 66.35 87.8601C64.1389 86.9591 62.1297 85.6386 60.4374 83.9738C58.745 82.309 57.4025 80.3325 56.4866 78.1574C55.5707 75.9822 55.0993 73.6509 55.0993 71.2965L73.3245 71.2965H91.5497Z" fill="#F1F1F1"/>
<path d="M200.901 71.2965C200.901 73.6509 200.429 75.9822 199.513 78.1574C198.597 80.3325 197.255 82.309 195.563 83.9738C193.87 85.6386 191.861 86.9591 189.65 87.8601C187.439 88.7611 185.069 89.2248 182.675 89.2248C180.282 89.2248 177.912 88.7611 175.701 87.8601C173.49 86.9591 171.481 85.6386 169.788 83.9738C168.096 82.309 166.754 80.3325 165.838 78.1574C164.922 75.9822 164.45 73.6509 164.45 71.2965L182.675 71.2965H200.901Z" fill="#F1F1F1"/>
<rect x="118.676" y="98.3973" width="18.649" height="9.17264" rx="4.58632" fill="#F1F1F1"/>
</svg>
