<svg width="113" height="104" viewBox="0 0 113 104" fill="none" xmlns="http://www.w3.org/2000/svg">
<path d="M102.5 65.5C90.7471 79.1334 31 84.5 17 103.5C22 83 0 67.8234 0 42.6945C0 17.5655 30.3711 0 55.5 0C104 0 127.5 36.5 102.5 65.5Z" fill="#F1F1F1"/>
<path d="M25.987 62.4826L19.71 63.4814L19.0764 59.4995L36.4143 56.7407L37.0479 60.7226L30.7432 61.7258L33.1456 76.8239L28.3894 77.5807L25.987 62.4826ZM41.5302 55.9267L48.3326 54.8443L57.9774 72.8727L52.9724 73.6691L50.8977 69.718L43.0722 70.9632L42.3263 75.363L37.9849 76.0538L41.5302 55.9267ZM45.1407 58.8395L43.7213 67.2024L49.1134 66.3445L45.1407 58.8395ZM57.1298 53.4445L67.3611 51.8165C71.8131 51.1081 74.2654 53.1562 74.9122 57.2211C75.5634 61.3136 73.8547 63.9387 69.4027 64.6471L63.8999 65.5227L64.8943 71.7721L60.1658 72.5245L57.1298 53.4445ZM70.1391 58.4058L69.9983 57.521C69.8091 56.3319 68.9129 55.5105 67.3367 55.7613L62.47 56.5357L63.2839 61.6514L68.1507 60.877C69.7269 60.6262 70.3415 59.6778 70.1391 58.4058Z" fill="#0F0F0F"/>
<path d="M24.9078 22.9167L20.4403 22.1087L20.9528 19.2746L33.2926 21.5064L32.7801 24.3404L28.2929 23.5289L26.3494 34.2746L22.9643 33.6623L24.9078 22.9167ZM36.9337 22.1649L41.7752 23.0406L44.0228 37.471L40.4606 36.8267L39.9944 33.6734L34.4247 32.6661L32.8836 35.4563L29.7937 34.8975L36.9337 22.1649ZM38.6804 24.9808L35.7499 30.2839L39.5876 30.9779L38.6804 24.9808ZM48.0364 24.173L55.3183 25.4899C58.4868 26.063 59.6568 28.0225 59.1336 30.9156C58.6068 33.8283 56.8353 35.1949 53.6667 34.6218L49.7502 33.9135L48.9458 38.3613L45.5804 37.7526L48.0364 24.173ZM55.636 30.5879L55.7499 29.9581C55.903 29.1118 55.4926 28.3466 54.3708 28.1437L50.907 27.5172L50.2485 31.1582L53.7123 31.7846C54.8341 31.9875 55.4723 31.4932 55.636 30.5879Z" fill="#0F0F0F"/>
<path d="M70.5681 35.404L67.0575 36.3352L66.4668 34.1082L76.1634 31.5361L76.7542 33.7631L73.2281 34.6984L75.4679 43.1424L72.8079 43.8479L70.5681 35.404ZM79.0246 30.7771L82.8291 29.768L89.3558 39.4585L86.5566 40.201L85.1484 38.075L80.7718 39.2359L80.6025 41.7804L78.1744 42.4244L79.0246 30.7771ZM81.2458 32.224L80.923 37.0604L83.9388 36.2605L81.2458 32.224ZM87.7492 28.4629L93.4713 26.9451C95.9612 26.2846 97.4739 27.307 98.0769 29.5804C98.684 31.8692 97.8646 33.4605 95.3747 34.1209L92.2971 34.9373L93.2242 38.4324L90.5797 39.1339L87.7492 28.4629ZM95.432 30.5302L95.3007 30.0353C95.1243 29.3703 94.5673 28.9553 93.6858 29.1891L90.9639 29.9111L91.7228 32.7722L94.4447 32.0502C95.3262 31.8163 95.6207 31.2416 95.432 30.5302Z" fill="#0F0F0F"/>
</svg>
