<svg width="40" height="40" viewBox="0 0 40 40" fill="none" xmlns="http://www.w3.org/2000/svg">
<circle cx="20" cy="20" r="20" fill="#D9D9D9"/>
<ellipse cx="11" cy="10.9474" rx="3" ry="2.94737" fill="#1F1F1F"/>
<ellipse cx="29" cy="10.9474" rx="3" ry="2.94737" fill="#1F1F1F"/>
<circle cx="20" cy="20" r="12" fill="#1F1F1F"/>
<path d="M16.5714 14.7369C16.5714 14.958 16.5271 15.177 16.4409 15.3814C16.3548 15.5857 16.2285 15.7714 16.0693 15.9278C15.9101 16.0842 15.7212 16.2082 15.5132 16.2929C15.3052 16.3775 15.0823 16.4211 14.8571 16.4211C14.632 16.4211 14.4091 16.3775 14.2011 16.2929C13.9931 16.2082 13.8041 16.0842 13.645 15.9278C13.4858 15.7714 13.3595 15.5857 13.2733 15.3814C13.1872 15.177 13.1429 14.958 13.1429 14.7369L14.8571 14.7369H16.5714Z" fill="#D9D9D9"/>
<path d="M26.8572 14.7369C26.8572 14.958 26.8128 15.177 26.7267 15.3814C26.6405 15.5857 26.5142 15.7714 26.3551 15.9278C26.1959 16.0842 26.0069 16.2082 25.7989 16.2929C25.5909 16.3775 25.368 16.4211 25.1429 16.4211C24.9178 16.4211 24.6948 16.3775 24.4868 16.2929C24.2789 16.2082 24.0899 16.0842 23.9307 15.9278C23.7715 15.7714 23.6452 15.5857 23.5591 15.3814C23.4729 15.177 23.4286 14.958 23.4286 14.7369L25.1429 14.7369H26.8572Z" fill="#D9D9D9"/>
<rect x="19.1429" y="17.2632" width="1.71429" height="0.842105" rx="0.421053" fill="#D9D9D9"/>
</svg>
