<svg width="32" height="32" viewBox="0 0 32 32" fill="none" xmlns="http://www.w3.org/2000/svg">
<path d="M16 17C11.7733 17 8.33334 13.56 8.33334 9.33335C8.33334 5.10669 11.7733 1.66669 16 1.66669C20.2267 1.66669 23.6667 5.10669 23.6667 9.33335C23.6667 13.56 20.2267 17 16 17ZM16 3.66669C12.88 3.66669 10.3333 6.21335 10.3333 9.33335C10.3333 12.4534 12.88 15 16 15C19.12 15 21.6667 12.4534 21.6667 9.33335C21.6667 6.21335 19.12 3.66669 16 3.66669Z" fill="#0F0F0F"/>
<path d="M27.4535 30.3333C26.9069 30.3333 26.4535 29.88 26.4535 29.3333C26.4535 24.7333 21.7602 21 16.0002 21C10.2402 21 5.54687 24.7333 5.54687 29.3333C5.54687 29.88 5.09354 30.3333 4.54687 30.3333C4.00021 30.3333 3.54688 29.88 3.54688 29.3333C3.54688 23.64 9.13354 19 16.0002 19C22.8669 19 28.4535 23.64 28.4535 29.3333C28.4535 29.88 28.0002 30.3333 27.4535 30.3333Z" fill="#0F0F0F"/>
</svg>
